<svg width="299" height="378" viewBox="0 0 299 378" fill="none" xmlns="http://www.w3.org/2000/svg">
<path d="M261.746 342.279L261.746 342.278C285.794 318.794 297.781 287.43 297.781 248.295C297.781 219.344 289.996 192.721 274.431 168.451C259.116 143.916 229.218 131.821 185.191 131.821C173.797 131.821 160.961 133.742 146.69 137.565C133.026 141.226 120.127 146.443 107.996 153.216C110.705 125.198 119.363 106.304 133.732 96.2046L133.737 96.2014C148.96 85.3748 171.289 79.8901 200.864 79.8901C210.017 79.8901 225.865 80.7332 248.434 82.4252L249.336 82.4928L249.494 81.6024L261.405 14.348L261.555 13.501L260.74 13.2261C250.613 9.80984 236.533 7.05049 218.534 4.93228C200.519 2.81225 181.254 1.75305 160.741 1.75305C109.918 1.75305 64.9029 21.6136 37.1031 54.4379C9.27372 87.2972 1.13211 132.571 1.13211 196.903C1.13211 257.07 13.0592 302.174 37.087 332.038L37.0924 332.045C61.5874 361.964 100.377 376.825 153.218 376.825C201.836 376.825 238.081 365.374 261.746 342.279ZM192.341 249.564C192.341 265.512 188.813 277.285 181.934 285.067C175.075 292.825 164.732 296.784 150.711 296.784C143.759 296.784 137.724 295.234 132.571 292.166C127.418 289.098 123.092 284.48 119.611 278.261C112.606 265.751 109.08 250.7 109.08 233.068C109.08 228.609 109.469 222.75 110.252 215.479C124.173 212.222 138.704 210.592 153.845 210.592C162.381 210.592 169.203 211.12 174.335 212.158C179.472 213.198 182.742 214.718 184.409 216.563C189.648 223.933 192.341 234.885 192.341 249.564Z" stroke="#E2E8F0" stroke-width="2"/>
</svg>
