<svg width="152" height="151" viewBox="0 0 152 151" fill="none" xmlns="http://www.w3.org/2000/svg">
<path d="M132.48 136.051L132.48 136.051C144.627 126.753 150.714 114.289 150.714 98.7543C150.714 87.2488 146.762 76.6841 138.911 67.0867C131.098 57.2789 115.975 52.561 93.9988 52.561C88.2793 52.561 81.8442 53.3169 74.7 54.8172C68.1472 56.1932 61.9418 58.1301 56.0854 60.6293C57.5521 50.3735 61.7405 43.5113 68.5019 39.7863L68.5063 39.7839C76.0093 35.6011 87.0771 33.4542 101.824 33.4542C106.382 33.4542 114.285 33.7836 125.554 34.4458L126.401 34.4955L126.588 33.6679L132.535 7.34649L132.747 6.40587L131.815 6.15934C126.728 4.81413 119.674 3.73192 110.68 2.90223C101.673 2.07136 92.0431 1.65643 81.7916 1.65643C56.3638 1.65643 33.7679 9.44155 19.7633 22.4034C5.6757 35.4421 1.60126 53.3992 1.60126 78.6408C1.60126 102.304 7.58874 120.157 19.7447 132L19.751 132.006C32.1218 143.85 51.6268 149.666 78.0355 149.666C102.331 149.666 120.539 145.186 132.48 136.051ZM97.0679 99.251C97.0679 105.354 95.3525 109.758 92.0834 112.657C88.7912 115.576 83.7518 117.123 76.7835 117.123C69.9516 117.123 64.9612 114.75 61.634 110.092C58.2241 105.318 56.4992 99.5693 56.4992 92.7948C56.4992 91.1839 56.6693 89.0721 57.018 86.4467C63.8327 85.221 70.9424 84.6071 78.3485 84.6071C82.6017 84.6071 85.9862 84.8134 88.521 85.2156C91.0621 85.6187 92.5742 86.1948 93.2987 86.8069C95.7576 89.5358 97.0679 93.6278 97.0679 99.251Z" stroke="#1E293B" stroke-width="2"/>
</svg>