<svg width="380" height="121" viewBox="0 0 380 121" fill="none" xmlns="http://www.w3.org/2000/svg">
<path d="M187.647 120.261V86.2422H192.915V88.4724C193.734 87.5904 194.694 86.8974 195.794 86.3934C196.918 85.8894 198.147 85.6375 199.482 85.6375C201.448 85.6375 203.228 86.1792 204.82 87.2628C206.412 88.3212 207.676 89.7575 208.613 91.5719C209.572 93.3862 210.052 95.3895 210.052 97.5819C210.052 99.7742 209.572 101.778 208.613 103.592C207.676 105.381 206.412 106.817 204.82 107.901C203.228 108.985 201.448 109.526 199.482 109.526C198.358 109.526 197.316 109.337 196.356 108.959C195.396 108.607 194.53 108.115 193.757 107.485V120.261H187.647ZM198.779 103.743C199.81 103.743 200.746 103.466 201.589 102.912C202.432 102.357 203.099 101.614 203.591 100.681C204.106 99.749 204.363 98.7158 204.363 97.5819C204.363 96.4479 204.106 95.4147 203.591 94.4824C203.099 93.55 202.432 92.8066 201.589 92.2522C200.746 91.6979 199.81 91.4207 198.779 91.4207C197.749 91.4207 196.813 91.6979 195.97 92.2522C195.127 92.8066 194.448 93.55 193.933 94.4824C193.441 95.4147 193.196 96.4479 193.196 97.5819C193.196 98.7158 193.441 99.749 193.933 100.681C194.448 101.614 195.127 102.357 195.97 102.912C196.813 103.466 197.749 103.743 198.779 103.743Z" fill="#475569"/>
<path d="M149.719 108.922V86.2422H155.198V88.737C155.947 87.6786 156.872 86.8722 157.972 86.3178C159.096 85.7635 160.266 85.4863 161.484 85.4863C162.725 85.4863 163.895 85.7635 164.996 86.3178C166.096 86.8722 167.021 87.6786 167.77 88.737C168.589 87.6786 169.608 86.8722 170.825 86.3178C172.043 85.7635 173.365 85.4863 174.794 85.4863C176.292 85.4863 177.697 85.8643 179.008 86.6202C180.319 87.351 181.384 88.4346 182.204 89.8709C183.023 91.2821 183.433 93.0082 183.433 95.0494V108.922H177.322V95.9943C177.322 94.7848 176.994 93.7138 176.339 92.7814C175.683 91.8491 174.735 91.3829 173.494 91.3829C172.839 91.3829 172.207 91.5593 171.598 91.9121C171.013 92.2397 170.533 92.7436 170.158 93.424C169.807 94.0792 169.631 94.9108 169.631 95.9187V108.922H163.521V95.9943C163.521 95.188 163.368 94.432 163.064 93.7264C162.783 93.0208 162.35 92.4538 161.765 92.0255C161.203 91.5971 160.512 91.3829 159.693 91.3829C159.037 91.3829 158.405 91.5593 157.796 91.9121C157.211 92.2397 156.731 92.7436 156.357 93.424C156.005 94.0792 155.83 94.9108 155.83 95.9187V108.922H149.719Z" fill="#475569"/>
<path d="M133.225 109.526C131.281 109.526 129.514 108.985 127.922 107.901C126.33 106.817 125.054 105.381 124.094 103.592C123.157 101.778 122.689 99.7742 122.689 97.5819C122.689 95.3895 123.157 93.3862 124.094 91.5719C125.054 89.7575 126.33 88.3212 127.922 87.2628C129.514 86.1792 131.281 85.6375 133.225 85.6375C134.583 85.6375 135.823 85.902 136.947 86.4312C138.071 86.9352 139.031 87.6408 139.827 88.548V86.2422H145.095V108.922H139.827V106.616C139.031 107.523 138.071 108.241 136.947 108.77C135.823 109.274 134.583 109.526 133.225 109.526ZM133.962 103.743C134.992 103.743 135.929 103.466 136.772 102.912C137.614 102.357 138.282 101.614 138.773 100.681C139.288 99.749 139.546 98.7158 139.546 97.5819C139.546 96.4479 139.288 95.4147 138.773 94.4824C138.282 93.55 137.614 92.8066 136.772 92.2522C135.929 91.6979 134.992 91.4207 133.962 91.4207C132.932 91.4207 131.996 91.6979 131.153 92.2522C130.31 92.8066 129.631 93.55 129.116 94.4824C128.624 95.4147 128.378 96.4479 128.378 97.5819C128.378 98.7158 128.624 99.749 129.116 100.681C129.631 101.614 130.31 102.357 131.153 102.912C131.996 103.466 132.932 103.743 133.962 103.743Z" fill="#475569"/>
<path d="M112.98 109.677C110.896 109.677 108.988 109.136 107.256 108.052C105.523 106.969 104.142 105.507 103.112 103.667C102.105 101.828 101.602 99.7994 101.602 97.5819C101.602 95.3392 102.105 93.3106 103.112 91.4963C104.142 89.6567 105.523 88.1952 107.256 87.1116C108.988 86.028 110.896 85.4863 112.98 85.4863C114.432 85.4863 115.801 85.7509 117.089 86.28C118.4 86.784 119.559 87.54 120.566 88.548L118.985 95.2384C118.4 94.2052 117.616 93.3106 116.632 92.5546C115.673 91.7735 114.537 91.3829 113.226 91.3829C112.126 91.3829 111.142 91.6601 110.276 92.2145C109.41 92.7688 108.731 93.5122 108.239 94.4446C107.747 95.377 107.502 96.4227 107.502 97.5819C107.502 98.7158 107.747 99.7616 108.239 100.719C108.731 101.652 109.41 102.395 110.276 102.949C111.142 103.504 112.126 103.781 113.226 103.781C114.537 103.781 115.673 103.403 116.632 102.647C117.616 101.866 118.4 100.959 118.985 99.9254L120.566 106.616C119.559 107.624 118.4 108.392 117.089 108.922C115.801 109.426 114.432 109.677 112.98 109.677Z" fill="#475569"/>
<path d="M90.3474 108.922V91.4585H86.4142V86.2423H90.4528V78.6825H96.3527V86.2423H100.532V91.4585H96.458V108.922H90.3474Z" fill="#475569"/>
<path d="M73.9658 109.677C71.8821 109.677 69.974 109.136 68.2415 108.052C66.509 106.969 65.1277 105.507 64.0976 103.667C63.0909 101.828 62.5875 99.7994 62.5875 97.5819C62.5875 95.3392 63.0909 93.3106 64.0976 91.4963C65.1277 89.6567 66.509 88.1952 68.2415 87.1116C69.974 86.028 71.8821 85.4863 73.9658 85.4863C76.0729 85.4863 77.981 86.028 79.6901 87.1116C81.4226 88.1952 82.7922 89.6567 83.7989 91.4963C84.8291 93.3106 85.3441 95.3392 85.3441 97.5819C85.3441 99.7994 84.8291 101.828 83.7989 103.667C82.7922 105.507 81.4226 106.969 79.6901 108.052C77.981 109.136 76.0729 109.677 73.9658 109.677ZM73.9658 103.781C75.0194 103.781 75.9675 103.504 76.8104 102.949C77.6766 102.395 78.3556 101.652 78.8473 100.719C79.3623 99.7616 79.6198 98.7158 79.6198 97.5819C79.6198 96.4227 79.3623 95.377 78.8473 94.4446C78.3556 93.5122 77.6766 92.7688 76.8104 92.2145C75.9675 91.6601 75.0194 91.3829 73.9658 91.3829C72.9123 91.3829 71.9524 91.6601 71.0861 92.2145C70.2433 92.7688 69.5643 93.5122 69.0493 94.4446C68.5576 95.377 68.3118 96.4227 68.3118 97.5819C68.3118 98.7158 68.5576 99.7616 69.0493 100.719C69.5643 101.652 70.2433 102.395 71.0861 102.949C71.9524 103.504 72.9123 103.781 73.9658 103.781Z" fill="#475569"/>
<path d="M48.6806 109.677C46.5969 109.677 44.6888 109.136 42.9563 108.052C41.2238 106.969 39.8425 105.507 38.8124 103.667C37.8057 101.828 37.3023 99.7994 37.3023 97.5819C37.3023 95.3392 37.8057 93.3106 38.8124 91.4963C39.8425 89.6567 41.2238 88.1952 42.9563 87.1116C44.6888 86.028 46.5969 85.4863 48.6806 85.4863C50.7877 85.4863 52.6958 86.028 54.4049 87.1116C56.1374 88.1952 57.507 89.6567 58.5137 91.4963C59.5439 93.3106 60.059 95.3392 60.059 97.5819C60.059 99.7994 59.5439 101.828 58.5137 103.667C57.507 105.507 56.1374 106.969 54.4049 108.052C52.6958 109.136 50.7877 109.677 48.6806 109.677ZM48.6806 103.781C49.7342 103.781 50.6824 103.504 51.5252 102.949C52.3914 102.395 53.0704 101.652 53.5621 100.719C54.0771 99.7616 54.3347 98.7158 54.3347 97.5819C54.3347 96.4227 54.0771 95.377 53.5621 94.4446C53.0704 93.5122 52.3914 92.7688 51.5252 92.2145C50.6824 91.6601 49.7342 91.3829 48.6806 91.3829C47.6271 91.3829 46.6672 91.6601 45.8009 92.2145C44.9581 92.7688 44.2791 93.5122 43.7641 94.4446C43.2724 95.377 43.0266 96.4227 43.0266 97.5819C43.0266 98.7158 43.2724 99.7616 43.7641 100.719C44.2791 101.652 44.9581 102.395 45.8009 102.949C46.6672 103.504 47.6271 103.781 48.6806 103.781Z" fill="#475569"/>
<path d="M13.0872 108.922V74.9026H22.9906C25.0977 74.9026 26.7717 75.3436 28.0125 76.2255C29.2768 77.0823 30.1782 78.1281 30.7166 79.3628C31.2551 80.5724 31.5243 81.7316 31.5243 82.8403C31.5243 83.8231 31.3487 84.7555 30.9976 85.6374C30.6464 86.4942 30.1547 87.2502 29.5226 87.9054C30.9742 88.8881 32.1448 90.1985 33.0344 91.8364C33.9241 93.4492 34.3689 95.2509 34.3689 97.2417C34.3689 99.182 33.9241 101.047 33.0344 102.836C32.1448 104.625 30.822 106.087 29.0661 107.221C27.3101 108.355 25.1445 108.922 22.5692 108.922H13.0872ZM19.1978 102.798H21.9371C23.3418 102.798 24.4656 102.508 25.3084 101.929C26.1747 101.324 26.7951 100.581 27.1697 99.6986C27.5677 98.7914 27.7667 97.8969 27.7667 97.0149C27.7667 96.1581 27.5794 95.2887 27.2048 94.4068C26.8302 93.4996 26.2098 92.7436 25.3435 92.1388C24.5007 91.5341 23.3652 91.2317 21.9371 91.2317H19.1978V102.798ZM19.1978 86.469H21.9371C23.0374 86.469 23.9271 86.1918 24.6061 85.6374C25.285 85.0831 25.6245 84.2767 25.6245 83.2183C25.6245 82.1096 25.285 81.278 24.6061 80.7236C23.9505 80.1692 23.1076 79.892 22.0775 79.892H19.1978V86.469Z" fill="#475569"/>
<path d="M369.149 51.048V33.585H365.215V28.3688H369.254V20.809H375.154V28.3688H379.333V33.585H375.259V51.048H369.149Z" fill="#020617"/>
<path d="M342.788 51.048V28.3688H348.266V30.8635C349.016 29.8051 349.94 28.9987 351.041 28.4444C352.141 27.89 353.323 27.6128 354.588 27.6128C356.086 27.6128 357.479 28.0034 358.767 28.7846C360.078 29.5405 361.131 30.6619 361.927 32.1486C362.747 33.6102 363.157 35.3867 363.157 37.4783V51.048H357.046V38.3477C357.046 37.0877 356.695 35.9663 355.992 34.9836C355.29 34.0008 354.283 33.5094 352.972 33.5094C351.919 33.5094 350.971 33.9 350.128 34.6812C349.308 35.4371 348.899 36.6341 348.899 38.2721V51.048H342.788Z" fill="#020617"/>
<path d="M329.462 51.804C327.097 51.804 325.013 51.2748 323.211 50.2165C321.408 49.1581 320.003 47.7092 318.996 45.8696C317.99 44.0049 317.486 41.8755 317.486 39.4816C317.486 37.1885 317.978 35.1599 318.961 33.396C319.945 31.6069 321.267 30.1957 322.93 29.1625C324.615 28.1294 326.477 27.6128 328.513 27.6128C330.597 27.6128 332.458 28.1294 334.097 29.1625C335.736 30.1705 337.024 31.5565 337.96 33.3204C338.92 35.0844 339.4 37.0877 339.4 39.3304V41.6361H326.547C325.962 41.6361 325.4 41.5983 324.861 41.5227C324.323 41.4472 323.784 41.359 323.246 41.2582C323.527 42.7701 324.217 44.0049 325.318 44.9624C326.441 45.8948 327.87 46.361 329.602 46.361C330.937 46.361 332.131 46.0712 333.184 45.4916C334.261 44.912 335.139 44.1939 335.818 43.3371L337.153 49.2337C336.099 50.0905 334.905 50.7331 333.57 51.1614C332.259 51.5898 330.89 51.804 329.462 51.804ZM323.105 37.2893C324.276 37.0121 325.423 36.8735 326.547 36.8735H330.269C330.925 36.8735 331.545 36.8987 332.131 36.9491C332.716 36.9995 333.266 37.0877 333.781 37.2137C333.43 35.8529 332.786 34.782 331.85 34.0008C330.937 33.2196 329.801 32.829 328.443 32.829C327.156 32.829 326.032 33.2322 325.072 34.0386C324.135 34.8198 323.48 35.9033 323.105 37.2893Z" fill="#020617"/>
<path d="M280.612 51.048V28.3688H286.091V30.8635C286.84 29.8051 287.765 28.9987 288.865 28.4444C289.989 27.89 291.159 27.6128 292.377 27.6128C293.618 27.6128 294.788 27.89 295.889 28.4444C296.989 28.9987 297.914 29.8051 298.663 30.8635C299.482 29.8051 300.501 28.9987 301.718 28.4444C302.936 27.89 304.258 27.6128 305.687 27.6128C307.185 27.6128 308.59 27.9908 309.901 28.7468C311.212 29.4775 312.277 30.5611 313.097 31.9975C313.916 33.4086 314.326 35.1348 314.326 37.1759V51.048H308.215V38.1209C308.215 36.9113 307.887 35.8403 307.232 34.908C306.576 33.9756 305.628 33.5094 304.387 33.5094C303.732 33.5094 303.1 33.6858 302.491 34.0386C301.906 34.3662 301.426 34.8702 301.051 35.5505C300.7 36.2057 300.524 37.0373 300.524 38.0453V51.048H294.414V38.1209C294.414 37.3145 294.261 36.5585 293.957 35.8529C293.676 35.1474 293.243 34.5804 292.658 34.152C292.096 33.7236 291.405 33.5094 290.586 33.5094C289.93 33.5094 289.298 33.6858 288.689 34.0386C288.104 34.3662 287.624 34.8702 287.25 35.5505C286.898 36.2057 286.723 37.0373 286.723 38.0453V51.048H280.612Z" fill="#020617"/>
<path d="M254.636 62.3877V28.3688H259.903V30.5989C260.723 29.7169 261.683 29.024 262.783 28.52C263.907 28.016 265.136 27.764 266.471 27.764C268.437 27.764 270.216 28.3058 271.809 29.3893C273.401 30.4477 274.665 31.8841 275.601 33.6984C276.561 35.5127 277.041 37.5161 277.041 39.7084C277.041 41.9007 276.561 43.9041 275.601 45.7184C274.665 47.5076 273.401 48.9439 271.809 50.0275C270.216 51.111 268.437 51.6528 266.471 51.6528C265.347 51.6528 264.305 51.4638 263.345 51.0858C262.385 50.7331 261.519 50.2417 260.746 49.6117V62.3877H254.636ZM265.768 45.8696C266.798 45.8696 267.735 45.5924 268.578 45.038C269.42 44.4837 270.088 43.7403 270.579 42.8079C271.094 41.8755 271.352 40.8424 271.352 39.7084C271.352 38.5744 271.094 37.5413 270.579 36.6089C270.088 35.6765 269.42 34.9332 268.578 34.3788C267.735 33.8244 266.798 33.5472 265.768 33.5472C264.738 33.5472 263.802 33.8244 262.959 34.3788C262.116 34.9332 261.437 35.6765 260.922 36.6089C260.43 37.5413 260.184 38.5744 260.184 39.7084C260.184 40.8424 260.43 41.8755 260.922 42.8079C261.437 43.7403 262.116 44.4837 262.959 45.038C263.802 45.5924 264.738 45.8696 265.768 45.8696Z" fill="#020617"/>
<path d="M239.675 51.804C237.592 51.804 235.684 51.2622 233.951 50.1787C232.219 49.0951 230.837 47.6336 229.807 45.794C228.8 43.9545 228.297 41.9259 228.297 39.7084C228.297 37.4657 228.8 35.4371 229.807 33.6228C230.837 31.7833 232.219 30.3217 233.951 29.2381C235.684 28.1546 237.592 27.6128 239.675 27.6128C241.782 27.6128 243.691 28.1546 245.4 29.2381C247.132 30.3217 248.502 31.7833 249.508 33.6228C250.539 35.4371 251.054 37.4657 251.054 39.7084C251.054 41.9259 250.539 43.9545 249.508 45.794C248.502 47.6336 247.132 49.0951 245.4 50.1787C243.691 51.2622 241.782 51.804 239.675 51.804ZM239.675 45.9074C240.729 45.9074 241.677 45.6302 242.52 45.0758C243.386 44.5215 244.065 43.7781 244.557 42.8457C245.072 41.8881 245.329 40.8424 245.329 39.7084C245.329 38.5492 245.072 37.5035 244.557 36.5711C244.065 35.6387 243.386 34.8954 242.52 34.341C241.677 33.7866 240.729 33.5094 239.675 33.5094C238.622 33.5094 237.662 33.7866 236.796 34.341C235.953 34.8954 235.274 35.6387 234.759 36.5711C234.267 37.5035 234.021 38.5492 234.021 39.7084C234.021 40.8424 234.267 41.8881 234.759 42.8457C235.274 43.7781 235.953 44.5215 236.796 45.0758C237.662 45.6302 238.622 45.9074 239.675 45.9074Z" fill="#020617"/>
<path d="M218.556 51.048V14.7612H224.667V51.048H218.556Z" fill="#020617"/>
<path d="M205.16 51.804C202.795 51.804 200.711 51.2748 198.908 50.2165C197.106 49.1581 195.701 47.7092 194.694 45.8696C193.688 44.0049 193.184 41.8755 193.184 39.4816C193.184 37.1885 193.676 35.1599 194.659 33.396C195.642 31.6069 196.965 30.1957 198.628 29.1625C200.313 28.1294 202.174 27.6128 204.211 27.6128C206.295 27.6128 208.156 28.1294 209.795 29.1625C211.434 30.1705 212.722 31.5565 213.658 33.3204C214.618 35.0844 215.098 37.0877 215.098 39.3304V41.6361H202.245C201.659 41.6361 201.098 41.5983 200.559 41.5227C200.021 41.4472 199.482 41.359 198.944 41.2582C199.225 42.7701 199.915 44.0049 201.016 44.9624C202.139 45.8948 203.567 46.361 205.3 46.361C206.634 46.361 207.829 46.0712 208.882 45.4916C209.959 44.912 210.837 44.1939 211.516 43.3371L212.85 49.2337C211.797 50.0905 210.603 50.7331 209.268 51.1614C207.957 51.5898 206.588 51.804 205.16 51.804ZM198.803 37.2893C199.974 37.0121 201.121 36.8735 202.245 36.8735H205.967C206.623 36.8735 207.243 36.8987 207.829 36.9491C208.414 36.9995 208.964 37.0877 209.479 37.2137C209.128 35.8529 208.484 34.782 207.548 34.0008C206.635 33.2196 205.499 32.829 204.141 32.829C202.853 32.829 201.73 33.2322 200.77 34.0386C199.833 34.8198 199.178 35.9033 198.803 37.2893Z" fill="#020617"/>
<path d="M181.214 52.182L169.661 28.3688H176.438L179.739 35.6639C180.044 36.2939 180.325 36.9239 180.582 37.5539C180.84 38.1586 181.097 38.8516 181.355 39.6328C181.612 38.8516 181.87 38.1586 182.128 37.5539C182.385 36.9239 182.666 36.2939 182.97 35.6639L186.271 28.3688H192.768L181.214 52.182Z" fill="#020617"/>
<path d="M159.133 51.804C156.768 51.804 154.684 51.2748 152.882 50.2165C151.079 49.1581 149.674 47.7092 148.667 45.8696C147.661 44.0049 147.157 41.8755 147.157 39.4816C147.157 37.1885 147.649 35.1599 148.632 33.396C149.616 31.6069 150.938 30.1957 152.601 29.1625C154.286 28.1294 156.148 27.6128 158.185 27.6128C160.268 27.6128 162.129 28.1294 163.768 29.1625C165.407 30.1705 166.695 31.5565 167.631 33.3204C168.591 35.0844 169.071 37.0877 169.071 39.3304V41.6361H156.218C155.633 41.6361 155.071 41.5983 154.532 41.5227C153.994 41.4472 153.455 41.359 152.917 41.2582C153.198 42.7701 153.888 44.0049 154.989 44.9624C156.113 45.8948 157.541 46.361 159.273 46.361C160.608 46.361 161.802 46.0712 162.855 45.4916C163.932 44.912 164.81 44.1939 165.489 43.3371L166.824 49.2337C165.77 50.0905 164.576 50.7331 163.242 51.1614C161.93 51.5898 160.561 51.804 159.133 51.804ZM152.776 37.2893C153.947 37.0121 155.094 36.8735 156.218 36.8735H159.94C160.596 36.8735 161.216 36.8987 161.802 36.9491C162.387 36.9995 162.937 37.0877 163.452 37.2137C163.101 35.8529 162.457 34.782 161.521 34.0008C160.608 33.2196 159.472 32.829 158.114 32.829C156.827 32.829 155.703 33.2322 154.743 34.0386C153.806 34.8198 153.151 35.9033 152.776 37.2893Z" fill="#020617"/>
<path d="M116.275 51.048V17.0291H127.022C129.55 17.0291 131.844 17.4701 133.905 18.3521C135.988 19.2341 137.779 20.4562 139.278 22.0186C140.8 23.5557 141.97 25.3575 142.79 27.4238C143.609 29.4901 144.019 31.6951 144.019 34.0386C144.019 36.3821 143.609 38.587 142.79 40.6534C141.97 42.7197 140.8 44.534 139.278 46.0964C137.779 47.6335 135.988 48.8431 133.905 49.7251C131.844 50.6071 129.55 51.048 127.022 51.048H116.275ZM122.386 44.9246H126.46C128.239 44.9246 129.808 44.6474 131.165 44.0931C132.523 43.5135 133.659 42.7323 134.572 41.7495C135.508 40.7416 136.211 39.5824 136.679 38.272C137.171 36.9617 137.417 35.5505 137.417 34.0386C137.417 32.5266 137.171 31.1155 136.679 29.8051C136.211 28.4696 135.508 27.3104 134.572 26.3276C133.659 25.3197 132.523 24.5385 131.165 23.9841C129.808 23.4297 128.239 23.1525 126.46 23.1525H122.386V44.9246Z" fill="#020617"/>
<path d="M90.5611 51.6528C89.2266 51.6528 87.9975 51.4008 86.8737 50.8968C85.7733 50.3929 84.8134 49.6999 83.994 48.8179V51.048H78.7263V14.7612H84.8368V29.8051C85.6094 29.1499 86.4757 28.6459 87.4356 28.2932C88.3955 27.9404 89.4373 27.764 90.5611 27.764C92.5277 27.764 94.307 28.3058 95.8991 29.3893C97.4911 30.4477 98.7554 31.884 99.6918 33.6984C100.652 35.5127 101.132 37.5161 101.132 39.7084C101.132 41.9007 100.652 43.9041 99.6918 45.7184C98.7554 47.5075 97.4911 48.9439 95.8991 50.0275C94.307 51.111 92.5277 51.6528 90.5611 51.6528ZM89.8587 45.8696C90.8889 45.8696 91.8254 45.5924 92.6682 45.038C93.511 44.4836 94.1783 43.7403 94.6699 42.8079C95.185 41.8755 95.4425 40.8424 95.4425 39.7084C95.4425 38.5744 95.185 37.5413 94.6699 36.6089C94.1783 35.6765 93.511 34.9331 92.6682 34.3788C91.8254 33.8244 90.8889 33.5472 89.8587 33.5472C88.8286 33.5472 87.8921 33.8244 87.0493 34.3788C86.2064 34.9331 85.5275 35.6765 85.0124 36.6089C84.5208 37.5413 84.2749 38.5744 84.2749 39.7084C84.2749 40.8424 84.5208 41.8755 85.0124 42.8079C85.5275 43.7403 86.2064 44.4836 87.0493 45.038C87.8921 45.5924 88.8286 45.8696 89.8587 45.8696Z" fill="#020617"/>
<path d="M65.3999 51.804C63.0353 51.804 60.9516 51.2748 59.1488 50.2165C57.3461 49.1581 55.9414 47.7092 54.9346 45.8696C53.9279 44.0049 53.4246 41.8755 53.4246 39.4816C53.4246 37.1885 53.9162 35.1599 54.8995 33.396C55.8828 31.6069 57.2056 30.1957 58.8679 29.1625C60.5536 28.1294 62.4148 27.6128 64.4517 27.6128C66.5354 27.6128 68.3966 28.1294 70.0355 29.1625C71.6743 30.1705 72.962 31.5565 73.8985 33.3204C74.8584 35.0844 75.3383 37.0877 75.3383 39.3304V41.6361H62.4851C61.8998 41.6361 61.3379 41.5983 60.7994 41.5227C60.2609 41.4472 59.7224 41.359 59.184 41.2582C59.4649 42.7701 60.1556 44.0049 61.2559 44.9624C62.3797 45.8948 63.8079 46.361 65.5404 46.361C66.8749 46.361 68.0689 46.0712 69.1224 45.4916C70.1994 44.912 71.0773 44.1939 71.7563 43.3371L73.0908 49.2337C72.0372 50.0905 70.8432 50.7331 69.5087 51.1614C68.1976 51.5898 66.828 51.804 65.3999 51.804ZM59.0435 37.2893C60.2141 37.0121 61.3613 36.8735 62.4851 36.8735H66.2076C66.8631 36.8735 67.4836 36.8987 68.0689 36.9491C68.6542 36.9995 69.2044 37.0877 69.7194 37.2137C69.3682 35.8529 68.7244 34.782 67.7879 34.0008C66.8749 33.2196 65.7394 32.829 64.3815 32.829C63.0938 32.829 61.97 33.2322 61.0101 34.0386C60.0736 34.8198 59.4181 35.9033 59.0435 37.2893Z" fill="#020617"/>
<path d="M16.9689 51.6528L0.3479 2.16377H8.88301L15.7111 22.5541C16.0405 23.5099 16.355 24.5188 16.6545 25.5808C16.9839 26.6074 17.3433 27.8641 17.7326 29.3509C18.1219 27.8641 18.4962 26.6074 18.8556 25.5808C19.2449 24.5188 19.6043 23.5099 19.9337 22.5541L27.6603 0.57077L35.4766 22.5541C35.8061 23.5099 36.1654 24.5188 36.5547 25.5808C36.9441 26.6074 37.3334 27.8641 37.7227 29.3509C38.112 27.8641 38.4714 26.6074 38.8008 25.5808C39.1302 24.5188 39.4447 23.5099 39.7442 22.5541L46.4824 2.16377H54.6132L37.9922 51.6528L29.6368 28.0765C29.3074 27.1207 28.963 26.1118 28.6036 25.0498C28.2442 23.9878 27.8699 22.7134 27.4806 21.2266C27.0913 22.7134 26.7169 23.9878 26.3575 25.0498C25.9982 26.0764 25.6538 27.0676 25.3243 28.0234L16.9689 51.6528Z" fill="#020617"/>
</svg>
